HIERARCHY
ROOT Hips
{
	OFFSET 0.00000 0.00000 0.00000
	CHANNELS 6 Xposition Yposition Zposition Zrotation Yrotation Xrotation 
	JOINT LHipJoint
	{
		OFFSET 0 0 0
		CHANNELS 3 Zrotation Yrotation Xrotation
		JOINT LeftUpLeg
		{
			OFFSET 1.28858 -1.83292 1.03970
			CHANNELS 3 Zrotation Yrotation Xrotation
			JOINT LeftLeg
			{
				OFFSET 2.47846 -6.80952 0.00000
				CHANNELS 3 Zrotation Yrotation Xrotation
				JOINT LeftFoot
				{
					OFFSET 2.75274 -7.56311 0.00000
					CHANNELS 3 Zrotation Yrotation Xrotation
					JOINT LeftToeBase
					{
						OFFSET 0.12848 -0.35301 1.68223
						CHANNELS 3 Zrotation Yrotation Xrotation
						End Site
						{
							OFFSET 0.00000 -0.00000 0.87311
						}
					}
				}
			}
		}
	}
	JOINT RHipJoint
	{
		OFFSET 0 0 0
		CHANNELS 3 Zrotation Yrotation Xrotation
		JOINT RightUpLeg
		{
			OFFSET -1.31183 -1.83292 1.03970
			CHANNELS 3 Zrotation Yrotation Xrotation
			JOINT RightLeg
			{
				OFFSET -2.44740 -6.72417 0.00000
				CHANNELS 3 Zrotation Yrotation Xrotation
				JOINT RightFoot
				{
					OFFSET -2.67343 -7.34519 0.00000
					CHANNELS 3 Zrotation Yrotation Xrotation
					JOINT RightToeBase
					{
						OFFSET -0.16914 -0.46471 1.77626
						CHANNELS 3 Zrotation Yrotation Xrotation
						End Site
						{
							OFFSET -0.00000 -0.00000 0.92777
						}
					}
				}
			}
		}
	}
	JOINT LowerBack
	{
		OFFSET 0 0 0
		CHANNELS 3 Zrotation Yrotation Xrotation
		JOINT Spine
		{
			OFFSET 0.01249 2.14252 0.03842
			CHANNELS 3 Zrotation Yrotation Xrotation
			JOINT Spine1
			{
				OFFSET -0.02957 2.14199 -0.03751
				CHANNELS 3 Zrotation Yrotation Xrotation
				JOINT Neck
				{
					OFFSET 0 0 0
					CHANNELS 3 Zrotation Yrotation Xrotation
					JOINT Neck1
					{
						OFFSET -0.01678 1.65709 -0.05476
						CHANNELS 3 Zrotation Yrotation Xrotation
						JOINT Head
						{
							OFFSET 0.07912 1.58331 -0.11843
							CHANNELS 3 Zrotation Yrotation Xrotation
							End Site
							{
								OFFSET 0.03298 1.73940 -0.04271
							}
						}
					}
				}
				JOINT LeftShoulder
				{
					OFFSET 0 0 0
					CHANNELS 3 Zrotation Yrotation Xrotation
					JOINT LeftArm
					{
						OFFSET 3.39556 1.16496 0.08673
						CHANNELS 3 Zrotation Yrotation Xrotation
						JOINT LeftForeArm
						{
							OFFSET 5.23910 -0.00000 -0.00000
							CHANNELS 3 Zrotation Yrotation Xrotation
							JOINT LeftHand
							{
								OFFSET 3.31467 -0.00000 0.00000
								CHANNELS 3 Zrotation Yrotation Xrotation
								JOINT LeftFingerBase
								{
									OFFSET 0 0 0
									CHANNELS 3 Zrotation Yrotation Xrotation
									JOINT LeftHandIndex1
									{
										OFFSET 0.96590 -0.00000 0.00000
										CHANNELS 3 Zrotation Yrotation Xrotation
										End Site
										{
											OFFSET 0.77873 -0.00000 0.00000
										}
									}
								}
								JOINT LThumb
								{
									OFFSET 0 0 0
									CHANNELS 3 Zrotation Yrotation Xrotation
									End Site
									{
										OFFSET 0.79062 -0.00000 0.79062
									}
								}
							}
						}
					}
				}
				JOINT RightShoulder
				{
					OFFSET 0 0 0
					CHANNELS 3 Zrotation Yrotation Xrotation
					JOINT RightArm
					{
						OFFSET -3.27193 1.31331 0.33940
						CHANNELS 3 Zrotation Yrotation Xrotation
						JOINT RightForeArm
						{
							OFFSET -5.30252 -0.00000 0.00000
							CHANNELS 3 Zrotation Yrotation Xrotation
							JOINT RightHand
							{
								OFFSET -3.67875 -0.00000 0.00000
								CHANNELS 3 Zrotation Yrotation Xrotation
								JOINT RightFingerBase
								{
									OFFSET 0 0 0
									CHANNELS 3 Zrotation Yrotation Xrotation
									JOINT RightHandIndex1
									{
										OFFSET -0.59481 -0.00000 0.00000
										CHANNELS 3 Zrotation Yrotation Xrotation
										End Site
										{
											OFFSET -0.47955 -0.00000 0.00000
										}
									}
								}
								JOINT RThumb
								{
									OFFSET 0 0 0
									CHANNELS 3 Zrotation Yrotation Xrotation
									End Site
									{
										OFFSET -0.48687 -0.00000 0.48687
									}
								}
							}
						}
					}
				}
			}
		}
	}
}
MOTION
Frames: 11
Frame Time: 0.181818
0.00 0.00 0.00 0 0 0 0 0 0 -21 0 0 0 0 0 0 0 0 0 0 0 0 0 0 21 0 0 0 0 0 0 0 0 0 0 0 0 0 0 0 0 0 0 0 0 0 0 -16 0 0 21 0 0 11 0 0 0 -8 0 0 0 0 0 0 0 0 0 0 0 0 0 0 0 0 0 0 0 0 8 0 0 0 0 0 0 0 0 0 0 0 0 0 0 0 0 0
0.00 0.00 0.00 -2.8470 -1.4342 6.7590 0.0000 0.0000 0.0000 -15.6253 -6.8267 -9.6222 1.1712 6.8694 19.3292 -0.2594 -11.4963 -3.4476 1.8050 8.4475 24.0817 0.0000 0.0000 0.0000 18.5871 2.5895 -13.2362 -1.7038 -8.2197 23.3833 -0.5735 -2.5458 -15.4555 -0.0013 -0.2330 0.6403 -0.2992 -0.0284 0.7243 -0.4072 -0.0275 2.8657 -0.2504 -0.0156 2.5318 -2.3912 0.2907 -2.3575 4.7661 -0.2364 19.2006 1.9030 0.0590 6.1926 -0.0000 0.0000 0.0000 -76.6214 -1.8173 33.6357 15.3113 -24.5779 -3.3543 -0.0000 0.0000 -5.4981 7.1604 -13.4154 -1.6695 -7.1250 0.0000 -0.0000 -13.8392 16.7018 9.5636 -0.0000 0.0000 0.0000 86.1498 -10.0074 12.6632 -16.7058 26.4683 -3.9553 0.0000 0.0000 0.5947 -2.2749 -22.1290 0.8573 7.1250 -0.0000 -0.0000 26.2091 -50.1911 -3.5692
0.00 0.00 0.00 -0.1004 1.9786 10.4636 0.0000 0.0000 0.0000 -13.7632 -8.6496 -22.3236 2.7465 10.2730 29.8653 -0.4340 -11.7399 2.2749 2.5446 9.9185 28.7132 0.0000 0.0000 0.0000 20.5504 7.5586 -9.2677 -0.2190 -3.0127 8.3140 -0.0838 -14.0117 -20.8303 -0.3180 3.6247 -10.0230 2.0098 1.2365 3.9687 -0.5788 1.7046 3.1344 -1.7691 0.8921 1.0710 -2.7012 -0.9072 -1.0473 1.6795 -1.2782 16.4771 0.9122 -0.6710 5.1484 0.0000 0.0000 0.0000 -74.0824 4.6409 32.4861 26.9228 -38.1055 -9.4514 -0.0000 0.0000 -6.4527 9.1115 -18.8375 -2.9644 -7.1250 0.0000 -0.0000 -12.3891 11.2544 9.9749 0.0000 0.0000 0.0000 78.4865 -5.8940 17.8680 -17.7627 27.8523 -4.4378 0.0000 0.0000 3.6575 -1.7050 -22.0699 0.6408 7.1250 -0.0000 -0.0000 26.6952 -50.0508 -3.5470
0.00 0.00 0.00 -1.3225 5.6867 7.6761 0.0000 0.0000 0.0000 -16.3737 -10.5932 -20.9506 2.1614 9.1944 26.4053 -0.0664 -4.5670 1.7588 2.0203 8.9082 25.5086 0.0000 0.0000 0.0000 17.7924 2.6722 -24.1013 -4.7374 -13.0818 39.6753 -0.5985 -2.4342 -15.6988 -0.7635 5.5801 -15.5707 0.5667 0.0187 6.0567 0.7296 0.0626 3.3033 0.4272 0.0341 0.0027 -1.1149 -0.2298 -7.1648 1.2904 -0.3845 19.9422 0.5756 -0.1451 7.2874 -0.0000 -0.0000 0.0000 -75.0627 -4.2060 47.9096 25.4524 -36.6629 -8.5586 -0.0000 0.0000 -7.9533 10.0938 -14.3767 -2.5309 -7.1250 0.0000 -0.0000 -11.8190 15.5896 8.3907 -0.0000 -0.0000 0.0000 83.2709 -5.6163 21.0995 -19.5503 30.0967 -5.3040 0.0000 -0.0000 -4.9723 -3.6486 -20.8119 1.2979 7.1250 -0.0000 -0.0000 24.2714 -49.2088 -2.6613
0.00 0.00 0.00 -0.1966 2.4182 7.2460 0.0000 0.0000 0.0000 -20.4563 -6.4005 -15.7366 0.9541 6.2201 17.4243 -0.0345 -4.6512 -1.8014 1.8211 8.4831 24.1912 0.0000 0.0000 0.0000 17.8780 -1.0356 -19.0739 -3.0764 -10.8177 31.6674 -0.8520 -2.0761 -18.3040 -0.5334 4.6801 -12.9983 0.7536 1.4657 3.9816 -1.4590 1.9797 3.0560 -1.9780 1.0173 0.9834 2.6459 -1.4290 -3.3049 -3.5793 -1.5698 18.0166 -1.6655 -0.8313 5.9261 -0.0000 0.0000 0.0000 -69.6507 -1.2576 2.5668 29.7865 -40.7097 -11.2701 -0.0000 0.0000 -4.2837 6.0537 -12.7472 -1.3405 -7.1250 0.0000 -0.0000 -14.6274 17.4034 9.9127 -0.0000 0.0000 0.0000 80.1931 -3.8537 -11.3732 -27.4867 38.6394 -9.8015 0.0000 -0.0000 -13.6117 -1.2236 -24.6161 0.5097 7.1250 -0.0000 -0.0000 28.6296 -52.2248 -5.4589
0.00 0.00 0.00 -0.0684 3.2429 7.8101 0.0000 0.0000 0.0000 -17.6962 -3.5712 -19.0970 0.8854 5.9983 16.7795 0.0361 -1.1616 4.2167 5.0351 13.4232 40.9741 0.0000 0.0000 0.0000 21.6877 -0.8799 -9.5023 -0.6922 -5.3188 14.8202 -1.3565 -4.3949 -23.9757 -0.6328 5.0898 -14.1648 2.6013 2.0935 1.6874 -2.0685 2.8321 2.2792 -3.5869 1.4805 1.6279 1.7118 -2.4741 -3.4713 -1.9562 -3.1694 18.3029 -1.0968 -1.5473 6.0420 -0.0000 0.0000 0.0000 -61.2540 -0.9134 -12.4435 42.2821 -49.3653 -20.1543 -0.0000 0.0000 -11.1736 20.3535 -9.5619 -3.5263 -7.1250 0.0000 -0.0000 -4.7184 19.8116 2.8495 -0.0000 0.0000 0.0000 75.9803 -4.7960 -22.1148 -37.9614 46.8146 -16.9374 0.0000 -0.0000 -18.7753 -9.0962 -19.6342 3.0794 7.1250 -0.0000 -0.0000 18.7305 -48.9072 -1.8647
0.00 0.00 0.00 -2.2033 2.6381 8.4986 0.0000 0.0000 0.0000 -13.5990 -1.9228 -24.4535 3.0735 10.8131 31.6522 -0.3995 -11.1194 4.1487 2.7648 10.3042 29.9676 0.0000 0.0000 0.0000 25.5991 4.6709 -11.9435 -0.4068 -4.0946 11.3431 0.1444 -13.1995 -16.8838 -0.0737 -1.7518 4.8203 2.2990 1.6799 2.0036 -0.7343 2.2687 2.2139 -2.0576 1.1736 1.2674 2.9104 -2.7048 -3.4916 -2.6299 -3.5004 17.8266 -1.5204 -1.6847 5.8524 0.0000 -0.0000 0.0000 -58.8804 -1.9149 -22.7331 58.5902 -55.9224 -33.1707 -0.0000 0.0000 -21.3099 33.0107 -9.6709 -6.2285 -7.1250 0.0000 -0.0000 4.2588 18.5109 -2.6938 0.0000 -0.0000 0.0000 70.3447 -5.0827 -26.5190 -56.3335 55.2510 -31.3089 0.0000 -0.0000 -28.6704 -8.9776 -18.9280 2.9337 7.1250 -0.0000 -0.0000 18.5447 -48.2184 -1.5212
0.00 0.00 0.00 -1.8022 2.2546 7.0060 0.0000 0.0000 0.0000 -18.2596 -1.3904 -9.1789 1.0096 6.3933 17.9299 -0.6890 -18.2852 -5.1868 3.9602 12.1073 36.1126 0.0000 0.0000 0.0000 21.5607 2.3274 -14.5248 -0.3731 -3.9231 10.8605 1.0096 -17.7046 -9.8829 -0.2728 3.3596 -9.2816 0.6372 0.3954 1.5988 -0.5949 0.5372 2.2016 -0.9682 0.2833 1.3702 5.1437 -1.9787 -3.8381 -4.3196 -2.4680 18.9013 -2.3928 -1.1611 6.2226 -0.0000 -0.0000 0.0000 -58.3773 -1.3494 -28.7793 63.2784 -57.1221 -37.0820 -0.0000 0.0000 -21.7634 39.0455 -20.5943 -15.9236 -7.1250 0.0000 -0.0000 6.5376 4.3047 -6.0689 -0.0000 -0.0000 0.0000 71.0532 -4.0719 -30.9419 -64.8473 57.4690 -38.4022 0.0000 -0.0000 -31.5477 -21.6850 -23.0723 8.8574 7.1250 -0.0000 -0.0000 7.8639 -54.4352 -1.8317
0.00 0.00 0.00 -0.5655 3.3521 5.5100 0.0000 0.0000 0.0000 -21.1005 -3.7722 -8.5790 0.7459 5.5167 15.3884 -0.0112 -11.0973 -7.6130 1.7342 8.2890 23.5953 0.0000 0.0000 0.0000 17.0334 0.4014 -19.1746 -2.0808 -9.0324 25.8967 -0.2261 -4.9038 -12.1319 -0.3360 3.7250 -10.3043 -0.6338 0.0546 2.0499 -1.2181 0.0914 3.2345 -0.8942 0.0479 2.1687 4.1834 -2.3887 -3.9667 -3.7403 -3.0364 18.6370 -2.0788 -1.4606 6.1605 0.0000 0.0000 0.0000 -56.2569 -6.1404 -29.7502 58.5654 -55.9154 -33.1501 -0.0000 0.0000 -26.1092 46.7480 -24.2860 -23.6142 -7.1250 0.0000 -0.0000 10.2161 -2.9179 -10.8941 0.0000 0.0000 0.0000 75.6946 -5.2586 -33.4937 -65.5100 57.6078 -38.9613 0.0000 -0.0000 -50.1588 -24.7929 -32.2976 13.8640 7.1250 -0.0000 -0.0000 9.2674 -64.6020 -4.4149
0.00 0.00 0.00 1.4298 1.0580 6.8494 0.0000 0.0000 0.0000 -15.3515 -5.8130 -17.8526 2.9493 10.6125 30.9838 -0.6995 -16.0828 -1.2280 3.7006 11.7510 34.8567 0.0000 0.0000 0.0000 15.9935 5.5710 -9.0718 -0.6056 -4.9812 13.8551 0.4403 -13.6933 -12.7245 -1.0799 6.6051 -18.5507 2.0875 0.6293 2.7014 -0.7224 0.8861 1.1871 -1.9358 0.4514 -0.2540 6.3808 -3.8856 2.6776 -8.2989 -5.0504 0.5737 -3.7420 -2.4705 -0.7036 -0.0000 0.0000 0.0000 -71.1869 2.1017 14.4527 42.1932 -49.3169 -20.0870 -0.0000 0.0000 -15.9079 35.7277 -22.2859 -15.2580 -7.1250 0.0000 -0.0000 4.1958 3.2548 -3.9616 -0.0000 0.0000 0.0000 79.1639 -7.3828 -16.7925 -33.8253 43.9549 -13.9917 0.0000 -0.0000 -34.2836 -25.4430 -29.2256 13.0772 7.1250 -0.0000 -0.0000 6.5430 -61.6430 -2.6565
0.00 0.00 0.00 2.7273 -1.3067 11.0236 0.0000 0.0000 0.0000 -16.1226 -8.0515 -24.9440 1.3867 7.4507 21.0575 0.3915 5.0220 11.1652 2.8080 10.3776 30.2083 0.0000 0.0000 0.0000 20.0450 0.2277 -19.4934 -2.2893 -9.4444 27.1955 -1.5114 -1.0442 -23.6387 -1.1829 6.9024 -19.4266 6.0062 1.4937 6.5749 -0.1542 2.3872 1.4461 -3.7200 1.1634 -1.9355 -4.3727 -1.9760 -6.6381 1.6461 -2.3484 8.8245 1.1993 -1.2298 4.1821 0.0000 0.0000 0.0000 -74.1710 -1.0375 34.3933 23.8343 -34.9886 -7.6114 -0.0000 0.0000 -2.8342 22.3734 -29.7377 -11.5400 -7.1250 0.0000 -0.0000 -4.9566 -1.6213 5.1138 0.0000 0.0000 0.0000 76.4254 -4.7157 -9.1693 -25.2854 36.4943 -8.4591 0.0000 -0.0000 -22.1721 -22.6488 -24.6890 9.8866 7.1250 -0.0000 -0.0000 7.4977 -56.3020 -2.0863
